    <?xml version="1.0" encoding="utf-8"?>
    <svg version="1.2" baseProfile="tiny-ps" xmlns="http://www.w3.org/2000/svg"  viewBox="0 0 1024 1024" preserveAspectRatio="xMidYMid meet">
    <g fill="#000000">
    <path d="M669.25 747.80 c-15 -2.20 -34.10 -9.20 -48.75 -17.95 -30.35 -18.10 -56.35 -44.60 -94.75 -96.60 -2.45 -3.35 -6.40 -8.50 -8.75 -11.45 -2.35 -3 -4.70 -6 -5.20 -6.75 -7.60 -10.25 -23.70 -27.60 -37 -39.90 -14.05 -12.95 -18 -16.10 -15.35 -12 2.10 3.15 7.20 13.70 9.40 19.35 3.95 10.15 6.20 20.45 10.15 46 3.70 23.90 11.70 46.60 21.80 61.80 6.60 9.95 14.90 18.90 23.95 25.75 7.65 5.75 20.30 11.25 30 13 3.40 0.60 3.45 0.65 1.75 1.05 -2 0.50 -11.95 0.10 -17.25 -0.65 -11.85 -1.70 -26.55 -7.45 -37.95 -14.80 -10.95 -7.05 -22.45 -18.85 -30.45 -31.15 -5.40 -8.40 -10 -18.95 -12.30 -28.50 -3.35 -14 -3.75 -19.45 -3.25 -42.25 0.45 -20.55 0.40 -25.40 -0.35 -32 -1.05 -9.20 -2.50 -15.05 -6 -24.10 -2.20 -5.60 -1.45 -4.80 -11 -11.75 -7.90 -5.80 -21.20 -17.35 -24.95 -21.70 -0.70 -0.85 -2.50 -2.95 -4.05 -4.70 -11.70 -13.55 -19.45 -28.90 -22.55 -44.75 -0.85 -4.25 -1.10 -7.35 -1.10 -13.75 0 -11.65 1.60 -20.25 5.95 -31 3.05 -7.55 5.35 -11.80 14.35 -26.05 12.90 -20.55 15.80 -27.20 15.30 -35.15 -0.35 -5.40 -2.95 -9.55 -7.40 -11.80 -4.90 -2.50 -12.35 -1.55 -16.35 2.15 -1.25 1.15 -4 2.75 -6.75 3.95 -2.55 1.10 -6 3.10 -7.70 4.45 -4.10 3.25 -8.95 8.50 -10.30 11.10 l-1.05 2.10 -0.45 -1.50 c-0.60 -2 0 -8.30 1.10 -11.80 0.45 -1.55 1.90 -4.40 3.15 -6.35 3.40 -5.25 3.70 -6.05 4.35 -10.50 1.60 -11.70 4.95 -17.85 13.10 -24 4.40 -3.30 6.60 -4.30 13.40 -6 5.10 -1.25 5.65 -1.30 19.70 -1.20 10.35 0 15.40 -0.15 17.65 -0.60 1.75 -0.40 3.15 -0.55 3.15 -0.35 -0.05 0.60 -6.35 5 -9.50 6.55 -1.80 0.90 -5.40 2.40 -8 3.30 -2.60 0.90 -4.35 1.65 -3.90 1.65 2.30 0.10 10.40 9.55 13.50 15.80 5.30 10.60 6.30 25.60 2.85 41 -0.60 2.70 -3.90 14.25 -4.20 14.75 -0.10 0.15 -0.65 1.95 -1.15 4 -0.55 2.05 -1.55 5.65 -2.25 8 -3.60 12.30 -4.65 30.35 -2.45 42.75 4.90 27.90 23.90 59.95 53.40 90.20 5.20 5.35 13.05 12.80 17.45 16.65 4.40 3.85 10.25 8.95 12.95 11.30 8 7 14.60 12.90 17.90 16 4.50 4.20 22 22.20 26.15 26.85 1.40 1.55 3.95 4.45 5.80 6.40 1.80 2 4.25 4.85 5.45 6.35 1.20 1.50 2.75 3.35 3.45 4.05 0.70 0.70 3.45 3.85 6.05 6.95 4.75 5.70 16.90 19.55 24.95 28.50 11.25 12.50 31.55 32.15 38.20 37 1.30 0.95 3.25 2.45 4.25 3.35 2 1.70 5.30 4.15 10.60 7.80 12.90 8.90 27.10 15.85 40.75 20.05 7.05 2.10 18.70 3.55 25.40 3.15 2.40 -0.15 4.35 -0.15 4.35 -0.05 0 1 -13.20 5.55 -20.50 7.05 -5.70 1.20 -7.45 1.30 -20.25 1.45 -9.65 0.10 -15.40 -0.05 -18.50 -0.50z"/>
    <path d="M636.50 676.85 c-16.95 -9.25 -26.75 -17.20 -50.40 -40.65 -9.25 -9.20 -17 -16.70 -17.20 -16.70 -0.20 0 -0.40 -0.25 -0.40 -0.50 0 -0.65 -15.05 -15.65 -18.40 -18.30 -1.30 -1.05 -4.50 -4.10 -7.10 -6.70 -2.60 -2.65 -5.40 -5.35 -6.25 -5.95 l-1.50 -1.10 1.45 0.30 c1.65 0.35 10.55 5.90 14.55 9.15 1.50 1.15 3 2.10 3.35 2.10 0.40 0 1.40 0.75 2.20 1.65 0.85 0.85 3.75 3.40 6.45 5.60 2.70 2.20 6.70 5.60 8.90 7.50 2.20 1.95 5.05 4.40 6.40 5.50 8.15 6.85 14.35 12.75 32.45 30.80 20.25 20.25 27 26.60 30.75 29.10 3.60 2.45 0.60 1.40 -5.25 -1.80z"/>
    <path d="M716 673.65 c-4.10 -0.45 -17.65 -2.80 -22.50 -3.90 -22.60 -5.20 -50.05 -17.95 -77.50 -35.95 -10.65 -7 -20.75 -14.05 -25.20 -17.60 -6.70 -5.40 -26.35 -19.30 -38.80 -27.45 -11.85 -7.80 -15.20 -9.90 -20.65 -12.85 -3.10 -1.65 -7.45 -4.25 -9.70 -5.70 -2.25 -1.50 -4.20 -2.70 -4.35 -2.70 -0.25 0 -5.10 -3.15 -11.50 -7.50 -5.70 -3.85 -11.70 -8.90 -18.95 -15.95 -3.40 -3.25 -8.75 -10.55 -7.75 -10.55 0.25 0 4 2.35 8.30 5.15 4.35 2.85 9.45 6.05 11.35 7.10 1.95 1.05 4.20 2.40 5 3 2.65 1.90 17.10 8.70 26 12.25 5.45 2.15 12.75 5.45 13.95 6.25 0.55 0.40 1.35 0.75 1.75 0.75 0.40 0 3.80 1.35 7.50 3.05 3.75 1.70 8.70 3.90 11.05 4.95 11.55 5.20 36.65 16.85 47.50 22.10 46.95 22.75 74.60 34.15 97.25 40.15 21.80 5.75 42.35 7.50 59 4.90 10.75 -1.65 17.25 -3.50 25 -7.15 9.55 -4.45 17.90 -10.65 23.25 -17.30 5.95 -7.40 9.35 -13.70 11.50 -21.10 0.60 -2.05 1.20 -3.60 1.30 -3.45 0.15 0.10 0 3 -0.25 6.40 -0.95 11.10 -4.55 20.80 -12 32 -6.75 10.20 -17.10 19.65 -28.80 26.25 -18.60 10.45 -37.85 15.30 -60.20 15.10 -5.40 0 -10.60 -0.15 -11.55 -0.25z"/>
    <path d="M349.40 659.80 c-5.85 -2.85 -12.60 -9.55 -15.75 -15.60 -2.45 -4.75 -4.45 -11.20 -4.90 -16 -0.70 -7.65 2.05 -18.65 6.75 -26.85 2.80 -4.95 9.65 -13.10 14.65 -17.40 4.35 -3.75 18.40 -13.45 22.60 -15.60 1.40 -0.65 4.75 -2.75 7.50 -4.60 2.75 -1.85 5.80 -3.75 6.80 -4.25 2.35 -1.20 11.90 -10.15 16.20 -15.10 1.80 -2.10 4.40 -5.70 5.75 -8 2 -3.30 2.50 -3.85 2.50 -2.85 0 3.45 -4.10 14.60 -6.60 18.05 -0.70 0.90 -2.55 3.45 -4.15 5.65 -3.40 4.70 -9.10 10.65 -13.95 14.65 -1.90 1.55 -4.75 4 -6.30 5.35 -1.60 1.40 -4.95 4.10 -7.50 6 -9.50 7.15 -19.80 16.60 -24.30 22.25 -9.10 11.50 -13.05 24.95 -10.25 35.25 0.60 2.25 2.05 5.70 3.15 7.75 2.30 4.15 7.50 9.75 10.65 11.40 1.75 0.95 1.85 1.05 0.75 1.05 -0.70 0 -2.30 -0.50 -3.60 -1.15z"/>
    <path d="M685 607.65 c-9.35 -0.65 -26.55 -3.65 -38 -6.70 -5.55 -1.45 -8.15 -2.25 -21.50 -6.60 -8.70 -2.80 -28.40 -10.25 -35.30 -13.25 -1.95 -0.85 -6.20 -2.55 -9.50 -3.80 -3.25 -1.20 -8.20 -3.15 -10.95 -4.30 -11.30 -4.75 -24.75 -10.20 -28.25 -11.50 -2.05 -0.75 -5.25 -2.05 -7.10 -2.95 -1.85 -0.85 -3.50 -1.55 -3.65 -1.55 -1.35 0 -25 -11.55 -32 -15.60 -7.05 -4.10 -16.95 -10.70 -21 -14.05 -5.60 -4.60 -11.80 -10.60 -14.35 -13.85 -1.40 -1.80 -2.90 -3.60 -3.35 -4 -1.55 -1.40 -4.95 -6.25 -6.45 -9.15 l-1.50 -2.85 7.30 7.05 c4 3.90 8.45 7.85 9.85 8.75 1.40 0.90 3.80 2.65 5.30 3.95 3.20 2.75 17.65 11.85 22.95 14.45 2.05 1 3.95 2.05 4.25 2.30 0.30 0.25 3.25 1.55 6.50 2.95 3.30 1.35 8.25 3.40 11 4.55 9.85 4.10 36.15 12.65 51.75 16.80 4.55 1.25 10.50 2.90 13.25 3.75 2.75 0.85 7.80 2.30 11.25 3.20 3.45 0.90 8.85 2.35 12 3.25 13.95 3.90 16.55 4.65 21.25 6 2.75 0.80 8.90 2.35 13.65 3.45 4.75 1.15 8.85 2.15 9.10 2.30 0.20 0.15 3.65 0.95 7.60 1.80 30.85 6.65 53.20 7.75 73.65 3.65 10.35 -2.10 22.70 -7.10 30.40 -12.30 3.75 -2.55 13.10 -11.90 14.35 -14.40 0.95 -1.90 2 -3 2 -2.10 0 1.20 -1.80 6.20 -3.35 9.30 -2.70 5.35 -5.85 9.85 -10.70 15.20 -5.15 5.70 -8.20 8.30 -14.25 12 -13 8 -24.50 11.80 -41.70 13.90 -5.10 0.60 -18.30 0.80 -24.50 0.35z"/>
    <path d="M197.85 577.25 c0.40 -3.80 2.10 -9.75 3.55 -12.25 2.20 -3.85 8.65 -11.05 12 -13.35 0.95 -0.65 3.95 -2.40 6.75 -3.85 17.35 -9.20 39 -8.80 63.05 1.15 22.25 9.25 29.85 11.60 44.70 13.80 7.75 1.20 21.95 0.85 30.10 -0.70 12.30 -2.35 27.75 -7.95 32.25 -11.65 1.45 -1.15 5.90 -3.90 6.40 -3.90 0.65 0 -6.35 6.15 -9.65 8.55 -9.55 6.80 -24.05 12.90 -38.15 16.05 -4.60 1.05 -6.40 1.15 -17.85 1.15 -11.40 0 -13.30 -0.15 -18.25 -1.20 -8.10 -1.70 -16.25 -4.55 -26.50 -9.30 -7.05 -3.25 -9.20 -4.10 -17.25 -6.75 -4.80 -1.60 -10.10 -3.20 -11.75 -3.55 -4 -0.90 -20.40 -0.95 -24.50 -0.05 -9.90 2.20 -19.15 6.95 -24.95 12.90 -4.95 5.05 -6.90 7.95 -9.70 14.20 -0.45 1.05 -0.50 0.85 -0.25 -1.25z"/>
    <path d="M588.75 552.70 c-4.45 -0.45 -15.35 -2.35 -21 -3.70 -5.85 -1.40 -13.65 -3.80 -27.10 -8.35 -3.60 -1.20 -9.60 -3.10 -13.25 -4.15 -3.65 -1.05 -10.25 -3.20 -14.65 -4.75 -4.40 -1.55 -9.10 -3.20 -10.50 -3.65 -4.50 -1.45 -3.80 -1.75 2.55 -1.10 2.70 0.30 7.65 0.75 10.95 1 12.40 1.05 42.70 5.90 62.50 10.05 6.60 1.35 16.60 3.30 22.25 4.25 9.30 1.65 11.40 1.80 22.75 2.05 11.40 0.25 17.10 -0.05 22.75 -1.15 1.25 -0.25 1.25 -0.25 -0.10 0.55 -4.90 2.80 -17.25 6.60 -26.40 8.05 -5 0.80 -25.65 1.40 -30.75 0.90z"/>
    <path d="M501.85 512.25 c-8.15 -1.15 -17.85 -4.05 -24.10 -7.15 -8.10 -4 -19.15 -11.50 -24.65 -16.80 -4.35 -4.15 -11.60 -13.45 -11.60 -14.90 0 -0.15 3.10 -0.40 6.90 -0.60 13.85 -0.70 22.60 -3.80 33.35 -11.80 7.30 -5.45 16.30 -15.85 21.15 -24.45 3.15 -5.70 5.50 -12.15 7.85 -21.60 4.55 -18.45 7.05 -23.95 15.35 -33.95 12.30 -14.75 34.35 -25.35 70.90 -34.20 5.10 -1.25 11.75 -2.70 14.75 -3.30 3.05 -0.55 7.55 -1.45 10 -2 2.50 -0.50 5.95 -1.20 7.75 -1.50 11.45 -2.10 33.35 -7.65 44 -11.10 20.55 -6.75 35.30 -14.65 44.50 -23.90 2.35 -2.35 4.75 -4.90 5.40 -5.75 0.60 -0.80 1.75 -2.35 2.55 -3.35 0.75 -1 2.05 -3.10 2.85 -4.60 0.80 -1.55 1.60 -2.80 1.85 -2.80 1.15 0 -0.55 10.30 -2.90 17.70 -1.60 5.05 -6.95 15.95 -10.30 20.95 -8.55 12.85 -20.80 23 -37.55 31.25 -16 7.90 -27.60 11.05 -62.20 17.10 -40.30 7 -52.60 10.90 -68.95 21.95 -1.65 1.15 -2.75 2.05 -2.45 2.05 0.30 0 3.35 -1 6.75 -2.20 16.20 -5.85 41.15 -10.80 67.70 -13.55 28.80 -2.95 48.60 -6.20 61.75 -10.10 5.50 -1.65 16.90 -7.10 20.45 -9.75 1.55 -1.15 4.45 -3.65 6.50 -5.60 2.05 -1.95 3.55 -3.10 3.35 -2.55 -0.25 0.55 -0.95 2.40 -1.55 4.15 -1.60 4.30 -7.15 13.75 -11.50 19.55 -11.20 14.90 -30.05 27.25 -50.25 33 -14.55 4.10 -23.05 5.05 -52.25 5.55 -27.70 0.50 -38.40 1.40 -51 4.35 -6.85 1.55 -19.55 6.65 -18.60 7.45 0.05 0.05 1.55 -0.10 3.35 -0.30 15.45 -1.90 20.80 -2.15 45 -1.95 51.65 0.35 59.75 0.25 66.75 -0.70 12.80 -1.75 22.30 -4.55 28.60 -8.35 1.85 -1.10 3.50 -2 3.75 -2 0.65 0 0.45 0.85 -0.35 1.50 -0.40 0.35 -1.75 2.15 -2.95 4 -1.25 1.85 -4.25 5.25 -6.70 7.50 -11.45 10.55 -23.90 17.05 -38.35 19.95 -6.70 1.35 -21.25 2.25 -30.50 1.85 -50.60 -2.05 -65.05 -1.50 -80.75 3.05 -2.35 0.65 -4.60 1.55 -5 1.95 -0.65 0.65 -0.15 0.70 4.50 0.35 10.85 -0.85 30.85 -0.35 44.50 1.05 7 0.75 13.30 1.45 14 1.55 2.50 0.50 22.80 2.25 29.25 2.60 8.50 0.40 19.45 -0.55 25.20 -2.20 2.35 -0.65 5 -1.35 5.80 -1.45 1.50 -0.30 1.50 -0.25 -0.75 1.90 -5.90 5.55 -11.80 9.45 -19.60 12.95 -10.55 4.65 -19.60 6.45 -32.55 6.45 -12.10 0 -24.35 -1.50 -46.85 -5.75 -13.05 -2.45 -19.30 -3.30 -26.85 -3.60 -4.15 -0.15 -7.95 -0.15 -8.45 0.05 -1.80 0.70 0.50 1.70 7.30 3.20 3.70 0.85 9 2.20 11.75 3 11.40 3.35 17.20 5.15 20.40 6.35 4.40 1.60 17.80 5 23.90 6 6 1.05 20.45 1.55 23.45 0.85 1.20 -0.30 2.30 -0.45 2.40 -0.35 0.10 0.10 -1 0.95 -2.50 1.85 -6.90 4.45 -13.90 7.45 -22.15 9.50 -3.90 0.95 -5.85 1.10 -14.75 1.10 -7.90 0.05 -11.30 -0.20 -14.75 -0.85 -7.05 -1.40 -17.15 -4.40 -24.10 -7.15 -3.85 -1.55 -14.75 -4.70 -22.40 -6.45 -5.30 -1.25 -12.45 -1.80 -18.10 -1.45 -5.10 0.35 -6.15 0.80 -3.05 1.35 4 0.70 14.05 3 18.40 4.15 8.95 2.45 12.35 3.70 25.35 9.10 9.55 4 22.35 7.45 30.40 8.20 1.45 0.15 1.45 0.20 0.45 0.75 -0.60 0.35 -3.85 1.20 -7.25 1.95 -5.30 1.10 -7.65 1.35 -16.45 1.45 -6.90 0.15 -11.85 -0.05 -15.15 -0.50z"/>
    <path d="M461.40 460.15 c0.10 -4 -0.20 -11.30 -0.85 -19.40 -1.55 -19.50 -1.70 -24.25 -1.10 -32.75 1.85 -26.45 11.70 -45.15 31.50 -59.90 15.25 -11.40 43.20 -22.65 86.30 -34.80 8.65 -2.45 33.55 -8.20 41.25 -9.55 15.45 -2.70 33.50 -6.80 41.75 -9.50 9.75 -3.20 21.05 -8.65 27.65 -13.35 14 -9.95 23.90 -21.30 29.70 -34.15 4.10 -9 5.35 -14.95 5.85 -27 l0.35 -8.50 1.15 2.50 c1.70 3.70 4.40 12.50 5.05 16.50 4 25.05 -2.55 46 -19.95 63.90 -4.85 5 -8.45 7.90 -17 13.55 -18.10 12.05 -38.70 19.35 -79.45 28.05 -4.50 1 -10.45 2.30 -13.25 3 -2.80 0.65 -8.45 2 -12.60 3 -14.60 3.45 -26.45 7.10 -41 12.50 -11 4.15 -23.20 12.15 -29.30 19.30 -7.50 8.75 -11.60 18.80 -13.70 33.45 -1.70 11.85 -4.40 21.75 -7.60 28.25 -5.90 11.75 -18.55 24 -30.50 29.50 -2.10 0.95 -3.95 1.75 -4.15 1.75 -0.20 0 -0.25 -2.85 -0.10 -6.35z"/>
    </g>
    </svg>
